<?xml version="1.0" encoding="UTF-8" standalone="no"?>
<!DOCTYPE svg PUBLIC "-//W3C//DTD SVG 1.1//EN" "http://www.w3.org/Graphics/SVG/1.1/DTD/svg11.dtd">
<svg width="100%" height="100%" viewBox="0 0 512 512" version="1.1" xmlns="http://www.w3.org/2000/svg" xmlns:xlink="http://www.w3.org/1999/xlink" xml:space="preserve" xmlns:serif="http://www.serif.com/" style="fill-rule:evenodd;clip-rule:evenodd;stroke-linejoin:round;stroke-miterlimit:2;">
    <style>
        path {
            fill: #204069;
            fill-rule: nonzero;
        }
        @media (prefers-color-scheme: dark) {
            path {
                fill: #fff;
            }
        }
    </style>
    <g transform="matrix(0.847098,0,0,0.849008,-588.525,-115.951)">
        <g transform="matrix(466.407,0,0,466.407,694.754,605.354)">
            <path d="M0,-0.72L0.144,-0.72L0.144,-0L0,-0L0,-0.72Z" />
        </g>
        <g transform="matrix(466.407,0,0,466.407,829.12,605.354)">
            <path d="M0.432,-0.576L0.432,-0.72L0,-0.72L0,-0L0.432,-0L0.432,-0.144L0.144,-0.144L0.144,-0.288L0.36,-0.288L0.36,-0.432L0.144,-0.432L0.144,-0.576L0.432,-0.576Z"/>
        </g>
        <g transform="matrix(466.407,0,0,466.407,1097.85,605.354)">
            <path d="M0.144,-0.144L0.144,-0.72L0,-0.72L0,-0L0.432,-0L0.432,-0.144L0.144,-0.144Z"/>
        </g>
    </g>
</svg>
