<?xml version="1.0" encoding="UTF-8" standalone="no"?>
<!DOCTYPE svg PUBLIC "-//W3C//DTD SVG 1.1//EN" "http://www.w3.org/Graphics/SVG/1.1/DTD/svg11.dtd">
<svg width="100%" height="100%" viewBox="0 0 1920 308" version="1.1" xmlns="http://www.w3.org/2000/svg" xmlns:xlink="http://www.w3.org/1999/xlink" xml:space="preserve" xmlns:serif="http://www.serif.com/" style="fill-rule:evenodd;clip-rule:evenodd;stroke-linejoin:round;stroke-miterlimit:2;">
    <g transform="matrix(2.71826,0,0,2.71826,-356.872,-342.192)">
        <g transform="matrix(0.66493,0,0,0.66493,131.287,125.403)">
            <path d="M0,77.488L46.089,77.488L46.089,164.868C21.83,154.178 0,130.638 0,105.018L0,77.488Z" style="fill:rgb(184,41,55);fill-rule:nonzero;"/>
        </g>
        <g transform="matrix(0.66493,0,0,0.66493,131.287,125.403)">
            <rect x="0.009" y="0.728" width="46.071" height="74.31" style="fill:rgb(252,181,43);fill-rule:nonzero;"/>
        </g>
        <g transform="matrix(0.66493,0,0,0.66493,131.287,125.403)">
            <path d="M96.259,0.829L96.259,0.728L48.529,0.728L48.529,0.829L48.41,0.829L48.41,165.828C54.327,168.276 60.557,169.888 66.919,170.618C73.311,171.431 79.801,170.945 86,169.188C89.482,168.339 92.898,167.237 96.22,165.888L96.22,165.688L96.39,165.618L96.39,0.829L96.259,0.829Z" style="fill:rgb(146,149,149);fill-rule:nonzero;"/>
        </g>
        <g transform="matrix(0.66493,0,0,0.66493,131.287,125.403)">
            <path d="M122.25,27.588L132.11,27.588L132.11,66.369L154.48,66.369L153.42,74.838L122.25,74.838L122.25,27.588Z" style="fill:rgb(17,21,23);fill-rule:nonzero;"/>
        </g>
        <g transform="matrix(0.66493,0,0,0.66493,131.287,125.403)">
            <path d="M179.16,59.469L175.06,59.668C173.478,59.713 171.904,59.911 170.36,60.258C169.381,60.478 168.45,60.871 167.61,61.418C167.027,61.816 166.577,62.381 166.32,63.038C166.094,63.698 165.982,64.392 165.99,65.088C165.943,66.131 166.382,67.136 167.18,67.809C168.129,68.525 169.303,68.879 170.49,68.809C172.557,68.9 174.599,68.321 176.31,67.159C177.158,66.533 177.861,65.731 178.37,64.809C178.932,63.715 179.204,62.497 179.16,61.268L179.16,59.469ZM179.36,70.469C178.046,71.972 176.492,73.246 174.76,74.238C172.728,75.289 170.456,75.792 168.17,75.699C166.683,75.706 165.201,75.504 163.77,75.099C162.442,74.739 161.203,74.109 160.13,73.248C159.074,72.377 158.227,71.28 157.65,70.038C156.999,68.573 156.685,66.981 156.73,65.378C156.634,63.318 157.187,61.279 158.31,59.548C159.378,58.042 160.813,56.833 162.48,56.038C164.314,55.169 166.265,54.57 168.27,54.258C170.427,53.902 172.605,53.682 174.79,53.599L179.23,53.398L179.23,51.679C179.23,49.559 178.644,48.102 177.47,47.309C176.248,46.497 174.806,46.081 173.34,46.119C169.67,46.119 167.58,47.508 167.05,50.288L158.58,49.488C159.2,45.875 160.787,43.262 163.34,41.648C165.894,40.035 169.337,39.232 173.67,39.238C175.959,39.205 178.239,39.542 180.42,40.238C182.108,40.778 183.639,41.723 184.88,42.988C186.033,44.218 186.874,45.706 187.33,47.329C187.861,49.188 188.117,51.115 188.09,53.048L188.09,74.889L179.36,74.889L179.36,70.469Z" style="fill:rgb(17,21,23);fill-rule:nonzero;"/>
        </g>
        <g transform="matrix(0.66493,0,0,0.66493,131.287,125.403)">
            <path d="M203.2,57.829C203.153,59.645 203.342,61.46 203.76,63.228C204.078,64.455 204.705,65.581 205.58,66.498C206.343,67.216 207.259,67.75 208.26,68.059C209.157,68.297 210.082,68.418 211.01,68.418C212.01,68.421 213,68.22 213.92,67.829C214.871,67.41 215.703,66.76 216.34,65.938C217.087,64.938 217.637,63.805 217.96,62.599C218.395,60.969 218.597,59.285 218.56,57.599C218.597,55.884 218.405,54.172 217.99,52.509C217.696,51.305 217.169,50.17 216.44,49.168C215.836,48.351 215.025,47.708 214.09,47.309C213.176,46.936 212.197,46.746 211.21,46.748C210.19,46.723 209.175,46.878 208.21,47.208C207.317,47.554 206.488,48.047 205.76,48.668C204.855,49.549 204.185,50.642 203.81,51.849C203.349,53.436 203.136,55.086 203.18,56.739L203.2,57.829ZM194,27.588L203.27,27.588L203.27,44.458C205.707,41.059 209.68,39.101 213.86,39.238C218.667,39.238 222.26,40.869 224.64,44.128C227.02,47.389 228.213,51.869 228.22,57.568C228.26,60.094 227.923,62.612 227.22,65.038C226.61,67.15 225.591,69.121 224.22,70.838C222.946,72.427 221.329,73.705 219.49,74.579C217.522,75.483 215.376,75.934 213.21,75.898C211.368,75.898 209.544,75.538 207.84,74.838C205.934,73.983 204.273,72.663 203.01,70.998L203.01,74.838L194.01,74.838L194,27.588Z" style="fill:rgb(17,21,23);fill-rule:nonzero;"/>
        </g>
        <g transform="matrix(0.66493,0,0,0.66493,131.287,125.403)">
            <path d="M248.85,68.518C251.189,68.671 253.438,67.59 254.78,65.668C256.113,63.768 256.78,61.055 256.78,57.528C256.78,54.002 256.113,51.312 254.78,49.458C252.064,46.186 247.209,45.735 243.937,48.451C243.571,48.755 243.234,49.092 242.93,49.458C241.63,51.305 240.98,53.995 240.98,57.528C240.98,61.099 241.62,63.829 242.9,65.699C244.258,67.605 246.515,68.664 248.85,68.488L248.85,68.518ZM248.85,75.929C243.29,75.929 238.99,74.338 235.95,71.159C232.91,67.978 231.387,63.435 231.38,57.528C231.343,54.93 231.76,52.345 232.61,49.889C233.346,47.738 234.54,45.772 236.11,44.128C237.67,42.539 239.557,41.308 241.64,40.518C246.326,38.851 251.444,38.851 256.13,40.518C260.403,42.104 263.717,45.555 265.13,49.889C265.96,52.349 266.366,54.932 266.33,57.528C266.371,60.15 265.954,62.759 265.1,65.238C264.354,67.395 263.157,69.369 261.59,71.028C260.042,72.635 258.157,73.878 256.07,74.668C253.763,75.534 251.314,75.962 248.85,75.929Z" style="fill:rgb(17,21,23);fill-rule:nonzero;"/>
        </g>
        <g transform="matrix(0.66493,0,0,0.66493,131.287,125.403)">
            <path d="M271.35,40.288L280.35,40.288L280.35,45.128C281.375,43.44 282.81,42.037 284.52,41.048C286.099,40.163 287.879,39.698 289.69,39.699C290.418,39.689 291.146,39.723 291.87,39.798C292.44,39.858 292.95,39.938 293.39,40.028L292.27,48.429C290.987,48.145 289.674,48.014 288.36,48.038C287.379,48.035 286.401,48.156 285.45,48.398C284.514,48.645 283.65,49.111 282.93,49.758C282.178,50.413 281.58,51.226 281.18,52.139C280.815,52.996 280.625,53.917 280.62,54.849L280.62,74.849L271.35,74.849L271.35,40.288Z" style="fill:rgb(17,21,23);fill-rule:nonzero;"/>
        </g>
        <g transform="matrix(0.66493,0,0,0.66493,131.287,125.403)">
            <path d="M319.2,57.168C319.247,55.388 319.059,53.609 318.64,51.878C318.323,50.657 317.696,49.537 316.82,48.628C316.105,47.887 315.203,47.351 314.21,47.079C313.29,46.833 312.342,46.709 311.39,46.708C310.398,46.705 309.417,46.909 308.51,47.309C307.58,47.726 306.764,48.36 306.13,49.159C305.376,50.144 304.826,51.269 304.51,52.469C304.081,54.065 303.879,55.715 303.91,57.369C303.873,59.116 304.064,60.861 304.48,62.559C304.762,63.77 305.279,64.915 306,65.929C306.595,66.74 307.396,67.379 308.32,67.778C309.218,68.159 310.185,68.349 311.16,68.338C313.149,68.418 315.093,67.73 316.59,66.418C317.481,65.519 318.149,64.423 318.54,63.219C319.004,61.638 319.217,59.995 319.17,58.349L319.2,57.168ZM319.4,70.268C317.046,73.882 312.992,76.022 308.68,75.929C303.827,75.929 300.21,74.295 297.83,71.028C295.45,67.762 294.257,63.239 294.25,57.458C294.21,54.965 294.548,52.481 295.25,50.088C295.857,48 296.855,46.045 298.19,44.329C299.447,42.736 301.056,41.456 302.89,40.588C304.861,39.683 307.011,39.232 309.18,39.268C310.931,39.27 312.667,39.582 314.31,40.188C316.195,40.942 317.85,42.176 319.11,43.768L319.11,27.588L328.37,27.588L328.37,74.838L319.37,74.838L319.4,70.268Z" style="fill:rgb(17,21,23);fill-rule:nonzero;"/>
        </g>
        <g transform="matrix(0.66493,0,0,0.66493,131.287,125.403)">
            <path d="M335.61,79.738C336.884,80.089 338.199,80.267 339.52,80.268C340.594,80.325 341.654,80.007 342.52,79.369C343.436,78.517 344.1,77.431 344.44,76.228L345.49,73.318L331.13,40.318L341.85,40.318L349.93,63.018L357.47,40.318L367.6,40.318L353.6,75.858C352.807,77.858 352.057,79.592 351.35,81.059C350.731,82.403 349.919,83.649 348.94,84.758C348.048,85.741 346.938,86.501 345.7,86.978C344.201,87.505 342.618,87.752 341.03,87.708C339.89,87.707 338.75,87.63 337.62,87.478C336.418,87.303 335.234,87.025 334.08,86.648L335.61,79.738Z" style="fill:rgb(17,21,23);fill-rule:nonzero;"/>
        </g>
        <g transform="matrix(0.66493,0,0,0.66493,131.287,125.403)">
            <path d="M407.55,55.778L401.79,38.838L396.1,55.778L407.55,55.778ZM397.36,27.588L406.76,27.588L424.49,74.838L413.9,74.838L410.13,63.929L393.59,63.929L389.81,74.849L379.62,74.849L397.36,27.588Z" style="fill:rgb(17,21,23);fill-rule:nonzero;"/>
        </g>
        <g transform="matrix(0.66493,0,0,0.66493,131.287,125.403)">
            <path d="M427.34,40.288L436.34,40.288L436.34,44.929C437.456,43.141 439.003,41.662 440.84,40.628C444.478,38.727 448.826,38.776 452.42,40.758C454.028,41.794 455.221,43.362 455.79,45.188C457.099,43.317 458.806,41.76 460.79,40.628C462.589,39.693 464.592,39.215 466.62,39.238C470.193,39.238 472.86,40.219 474.62,42.179C476.38,44.139 477.273,47.325 477.3,51.738L477.3,74.838L468.1,74.838L468.1,52.998C468.125,51.988 468.014,50.979 467.77,49.998C467.603,49.336 467.3,48.717 466.88,48.179C466.52,47.751 466.049,47.429 465.52,47.248C464.987,47.076 464.43,46.989 463.87,46.989C462.998,46.976 462.132,47.132 461.32,47.449C460.448,47.813 459.659,48.351 459,49.028C458.381,49.641 457.876,50.359 457.51,51.148C457.135,51.932 456.944,52.79 456.95,53.659L456.95,74.838L447.68,74.838L447.68,52.998C447.705,51.988 447.594,50.979 447.35,49.998C447.183,49.336 446.88,48.717 446.46,48.179C446.1,47.751 445.629,47.429 445.1,47.248C444.563,47.076 444.003,46.988 443.44,46.989C442.572,46.977 441.709,47.133 440.9,47.449C440.036,47.817 439.257,48.358 438.61,49.038C437.982,49.682 437.478,50.434 437.12,51.259C436.742,52.146 436.551,53.103 436.56,54.068L436.56,74.849L427.3,74.849L427.34,40.288Z" style="fill:rgb(17,21,23);fill-rule:nonzero;"/>
        </g>
        <g transform="matrix(0.66493,0,0,0.66493,131.287,125.403)">
            <path d="M507.16,56.378C507.211,54.685 506.978,52.995 506.47,51.378C506.103,50.266 505.479,49.256 504.65,48.429C503.937,47.772 503.07,47.305 502.13,47.068C501.219,46.851 500.286,46.74 499.35,46.738C498.365,46.736 497.389,46.916 496.47,47.268C495.548,47.64 494.731,48.23 494.09,48.988C493.354,49.889 492.804,50.925 492.47,52.038C492.041,53.475 491.838,54.97 491.87,56.469C491.87,60.128 492.57,62.728 493.96,64.248C495.271,65.733 497.169,66.567 499.15,66.528C500.24,66.541 501.325,66.372 502.36,66.028C503.324,65.713 504.198,65.171 504.91,64.449C505.669,63.636 506.233,62.661 506.56,61.599C506.991,60.217 507.194,58.775 507.16,57.329L507.16,56.378ZM493,77.018C493.122,77.766 493.379,78.484 493.76,79.139C494.085,79.664 494.54,80.098 495.08,80.398C495.702,80.731 496.38,80.944 497.08,81.028C498.012,81.146 498.951,81.2 499.89,81.188C501.292,81.247 502.681,80.9 503.89,80.188C504.838,79.569 505.585,78.686 506.04,77.648C506.524,76.491 506.815,75.261 506.9,74.008C507.01,72.639 507.06,71.228 507.06,69.768L507.06,68.708C505.962,70.351 504.442,71.666 502.66,72.518C500.783,73.395 498.731,73.836 496.66,73.809C491.8,73.809 488.18,72.238 485.77,69.108C483.36,65.978 482.16,61.758 482.16,56.469C482.124,54.097 482.462,51.735 483.16,49.469C483.772,47.473 484.771,45.618 486.1,44.008C487.393,42.478 489.013,41.259 490.84,40.438C492.828,39.555 494.985,39.115 497.16,39.148C499.004,39.132 500.834,39.471 502.55,40.148C504.47,41 506.127,42.351 507.35,44.059L507.35,40.148L516.349,40.148L516.349,69.869C516.382,72.489 516.083,75.103 515.46,77.648C514.938,79.761 513.966,81.736 512.61,83.438C511.254,85.063 509.496,86.305 507.51,87.038C505.062,87.918 502.471,88.335 499.87,88.268C497.481,88.306 495.096,88.071 492.76,87.568C491.009,87.203 489.351,86.481 487.89,85.449C486.628,84.521 485.618,83.294 484.95,81.878C484.221,80.299 483.761,78.609 483.59,76.878L493,77.018Z" style="fill:rgb(17,21,23);fill-rule:nonzero;"/>
        </g>
        <g transform="matrix(0.66493,0,0,0.66493,131.287,125.403)">
            <path d="M523.56,79.738C524.833,80.089 526.148,80.267 527.47,80.268C528.544,80.324 529.604,80.006 530.47,79.369C531.379,78.514 532.039,77.429 532.38,76.228L533.439,73.318L519.08,40.318L529.8,40.318L537.88,63.018L545.42,40.318L555.55,40.318L541.55,75.858C540.764,77.858 540.014,79.592 539.3,81.059C538.682,82.403 537.869,83.649 536.89,84.758C535.996,85.744 534.883,86.504 533.64,86.978C532.145,87.507 530.565,87.754 528.98,87.708C527.84,87.707 526.7,87.63 525.57,87.478C524.368,87.304 523.184,87.026 522.03,86.648L523.56,79.738Z" style="fill:rgb(17,21,23);fill-rule:nonzero;"/>
        </g>
        <g transform="matrix(0.66493,0,0,0.66493,131.287,125.403)">
            <rect x="558.31" y="27.588" width="9.26" height="47.25" style="fill:rgb(17,21,23);fill-rule:nonzero;"/>
        </g>
        <g transform="matrix(0.66493,0,0,0.66493,131.287,125.403)">
            <path d="M605,62.329C604.844,66.041 603.323,69.566 600.73,72.228C598.243,74.695 594.493,75.929 589.48,75.929C586.901,75.989 584.335,75.541 581.93,74.608C579.928,73.806 578.147,72.534 576.74,70.898C575.345,69.212 574.322,67.248 573.74,65.139C573.047,62.706 572.71,60.187 572.74,57.659C572.713,55.108 573.104,52.571 573.9,50.148C574.604,48 575.74,46.019 577.24,44.329C578.727,42.699 580.558,41.422 582.6,40.588C586.9,38.99 591.605,38.839 596,40.159C597.622,40.68 599.122,41.524 600.41,42.639C601.596,43.695 602.541,44.995 603.18,46.449C603.867,47.992 604.315,49.63 604.51,51.309L595.18,52.568C595.046,51.039 594.522,49.569 593.66,48.298C592.86,47.219 591.49,46.679 589.55,46.679C588.319,46.633 587.101,46.942 586.04,47.568C585.109,48.174 584.35,49.007 583.83,49.988C583.254,51.073 582.861,52.246 582.67,53.458C582.446,54.804 582.336,56.165 582.34,57.528C582.335,58.925 582.445,60.32 582.67,61.699C582.856,62.92 583.234,64.104 583.79,65.208C584.293,66.192 585.049,67.024 585.98,67.619C587.037,68.255 588.257,68.568 589.49,68.518C591.083,68.616 592.644,68.039 593.79,66.929C594.892,65.655 595.52,64.041 595.57,62.358L605,62.329Z" style="fill:rgb(17,21,23);fill-rule:nonzero;"/>
        </g>
        <g transform="matrix(0.66493,0,0,0.66493,131.287,125.403)">
            <path d="M609.66,27.588L618.92,27.588L618.92,44.659C620.152,42.924 621.79,41.517 623.69,40.559C625.461,39.688 627.407,39.237 629.38,39.239C633.307,39.239 636.22,40.262 638.12,42.309C640.02,44.355 640.967,47.588 640.96,52.009L640.96,74.838L631.7,74.838L631.7,53.268C631.7,50.838 631.23,49.179 630.31,48.268C629.296,47.356 627.962,46.882 626.6,46.949C625.549,46.925 624.503,47.105 623.52,47.478C622.637,47.846 621.822,48.36 621.11,48.998C620.47,49.646 619.943,50.397 619.55,51.219C619.126,52.094 618.91,53.056 618.92,54.028L618.92,74.809L609.66,74.809L609.66,27.588Z" style="fill:rgb(17,21,23);fill-rule:nonzero;"/>
        </g>
        <g transform="matrix(0.66493,0,0,0.66493,131.287,125.403)">
            <path d="M670,53.728C670.123,51.721 669.496,49.74 668.24,48.168C667.07,46.849 665.24,46.168 662.78,46.168C661.67,46.145 660.567,46.35 659.54,46.768C658.653,47.14 657.853,47.691 657.19,48.389C656.547,49.08 656.041,49.888 655.7,50.768C655.337,51.729 655.135,52.743 655.1,53.768L670,53.728ZM678.55,64.048C677.93,67.935 676.377,70.882 673.89,72.889C671.39,74.889 667.77,75.889 663,75.889C657.26,75.889 652.946,74.298 650.06,71.119C647.174,67.938 645.73,63.438 645.73,57.619C645.688,54.975 646.111,52.345 646.98,49.849C647.743,47.69 648.953,45.717 650.53,44.059C652.059,42.464 653.924,41.231 655.99,40.449C658.228,39.61 660.602,39.197 662.99,39.228C668.276,39.228 672.276,40.748 674.99,43.788C677.703,46.829 679.037,50.932 678.99,56.099L678.99,59.809L655,59.809C654.947,62.159 655.694,64.458 657.12,66.329C658.44,67.889 660.43,68.679 663.12,68.679C666.78,68.679 668.939,67.132 669.6,64.038L678.55,64.048Z" style="fill:rgb(17,21,23);fill-rule:nonzero;"/>
        </g>
        <g transform="matrix(0.66493,0,0,0.66493,131.287,125.403)">
            <path d="M707.74,57.168C707.789,55.388 707.598,53.608 707.17,51.878C706.857,50.657 706.233,49.538 705.36,48.628C704.643,47.884 703.737,47.349 702.74,47.079C701.823,46.834 700.879,46.71 699.93,46.708C698.938,46.702 697.957,46.907 697.05,47.309C696.118,47.723 695.302,48.358 694.67,49.159C693.909,50.139 693.357,51.266 693.05,52.469C692.621,54.065 692.419,55.715 692.45,57.369C692.415,59.115 692.604,60.859 693.01,62.559C693.308,63.775 693.838,64.923 694.57,65.938C695.164,66.747 695.961,67.386 696.88,67.788C697.781,68.168 698.752,68.359 699.73,68.349C701.719,68.427 703.662,67.74 705.16,66.429C706.069,65.534 706.755,64.438 707.16,63.228C707.624,61.648 707.837,60.005 707.79,58.358L707.74,57.168ZM707.94,70.268C705.583,73.884 701.524,76.024 697.21,75.929C692.356,75.929 688.74,74.295 686.36,71.028C683.98,67.762 682.79,63.239 682.79,57.458C682.756,54.966 683.093,52.482 683.79,50.088C684.42,47.997 685.438,46.043 686.79,44.329C688.045,42.734 689.654,41.454 691.49,40.588C693.458,39.684 695.604,39.232 697.771,39.268C699.521,39.27 701.258,39.582 702.9,40.188C704.785,40.942 706.44,42.176 707.7,43.768L707.7,27.588L716.97,27.588L716.97,74.838L707.97,74.838L707.94,70.268Z" style="fill:rgb(17,21,23);fill-rule:nonzero;"/>
        </g>
        <g transform="matrix(0.66493,0,0,0.66493,131.287,125.403)">
            <path d="M746.98,57.168C747.027,55.388 746.839,53.609 746.42,51.878C746.104,50.657 745.477,49.537 744.6,48.628C743.887,47.885 742.984,47.349 741.99,47.079C741.07,46.833 740.122,46.709 739.17,46.708C738.179,46.705 737.197,46.909 736.29,47.309C735.36,47.726 734.544,48.36 733.91,49.159C733.156,50.144 732.606,51.269 732.29,52.469C731.86,54.065 731.659,55.715 731.69,57.369C731.652,59.116 731.844,60.861 732.26,62.559C732.55,63.776 733.077,64.924 733.81,65.938C734.407,66.748 735.208,67.386 736.13,67.788C737.028,68.168 737.995,68.359 738.97,68.349C740.959,68.428 742.902,67.741 744.4,66.429C745.31,65.534 745.994,64.438 746.4,63.228C746.864,61.648 747.077,60.005 747.03,58.358L746.98,57.168ZM747.18,70.268C744.826,73.882 740.771,76.022 736.46,75.929C731.606,75.929 727.99,74.295 725.61,71.028C723.23,67.762 722.026,63.228 722,57.429C721.961,54.935 722.298,52.451 723,50.059C723.607,47.97 724.604,46.016 725.94,44.298C727.197,42.706 728.806,41.426 730.64,40.559C732.611,39.653 734.761,39.202 736.93,39.239C738.681,39.241 740.418,39.552 742.06,40.159C743.945,40.912 745.601,42.146 746.86,43.739L746.86,27.588L756.12,27.588L756.12,74.838L747.12,74.838L747.18,70.268Z" style="fill:rgb(17,21,23);fill-rule:nonzero;"/>
        </g>
        <g transform="matrix(0.66493,0,0,0.66493,131.287,125.403)">
            <path d="M782.81,59.469L778.7,59.668C777.118,59.713 775.544,59.911 774,60.258C773.024,60.477 772.097,60.871 771.26,61.418C770.677,61.816 770.228,62.381 769.97,63.038C769.739,63.697 769.628,64.391 769.64,65.088C769.588,66.132 770.028,67.139 770.83,67.809C771.779,68.525 772.953,68.879 774.14,68.809C776.207,68.9 778.248,68.321 779.96,67.159C780.787,66.527 781.469,65.726 781.96,64.809C782.525,63.716 782.801,62.497 782.76,61.268L782.81,59.469ZM783,70.469C781.688,71.973 780.133,73.247 778.4,74.238C776.37,75.288 774.103,75.791 771.82,75.699C770.332,75.706 768.852,75.505 767.42,75.099C766.093,74.739 764.854,74.109 763.78,73.248C762.719,72.383 761.87,71.284 761.3,70.038C760.646,68.574 760.328,66.982 760.37,65.378C760.277,63.317 760.834,61.278 761.96,59.548C763.027,58.042 764.463,56.833 766.13,56.038C767.964,55.169 769.914,54.57 771.92,54.258C774.077,53.902 776.255,53.681 778.44,53.599L782.87,53.398L782.87,51.679C782.87,49.559 782.287,48.102 781.12,47.309C779.896,46.496 778.449,46.08 776.98,46.119C773.32,46.119 771.224,47.508 770.69,50.288L762.22,49.488C762.84,45.875 764.43,43.262 766.99,41.648C769.55,40.035 772.99,39.232 777.311,39.238C779.6,39.203 781.879,39.541 784.061,40.238C785.752,40.778 787.286,41.722 788.53,42.988C789.676,44.223 790.516,45.709 790.98,47.329C791.506,49.189 791.763,51.115 791.74,53.048L791.74,74.889L783,74.889L783,70.469Z" style="fill:rgb(17,21,23);fill-rule:nonzero;"/>
        </g>
        <g transform="matrix(0.66493,0,0,0.66493,131.287,125.403)">
            <path d="M797.34,40.288L806.61,40.288L806.61,61.869C806.61,64.338 807.05,65.998 807.93,66.869C808.922,67.768 810.232,68.233 811.57,68.159C812.58,68.191 813.585,68.011 814.521,67.628C815.336,67.243 816.082,66.726 816.73,66.099C817.439,65.486 818.015,64.733 818.42,63.889C818.845,63.01 819.06,62.044 819.05,61.068L819.05,40.288L828.32,40.288L828.32,74.838L819.32,74.838L819.32,70.079C818.099,71.919 816.452,73.438 814.521,74.508C812.752,75.432 810.785,75.909 808.79,75.898C804.87,75.898 801.98,74.872 800.12,72.818C798.26,70.765 797.334,67.535 797.34,63.128L797.34,40.288Z" style="fill:rgb(17,21,23);fill-rule:nonzero;"/>
        </g>
        <g transform="matrix(0.66493,0,0,0.66493,131.287,125.403)">
            <path d="M857.88,36.128L843.65,36.128L843.65,27.588L882,27.588L882,36.128L867.81,36.128L867.81,74.838L857.88,74.838L857.88,36.128Z" style="fill:rgb(17,21,23);fill-rule:nonzero;"/>
        </g>
        <g transform="matrix(0.66493,0,0,0.66493,131.287,125.403)">
            <path d="M878.86,40.288L887.86,40.288L887.86,45.128C888.885,43.44 890.319,42.037 892.03,41.048C893.609,40.164 895.39,39.699 897.2,39.699C897.928,39.689 898.656,39.723 899.38,39.798C899.95,39.858 900.46,39.938 900.9,40.028L899.78,48.429C898.496,48.145 897.185,48.014 895.87,48.038C894.889,48.035 893.911,48.156 892.96,48.398C892.023,48.645 891.16,49.111 890.44,49.758C889.688,50.413 889.09,51.226 888.69,52.139C888.325,52.996 888.135,53.917 888.13,54.849L888.13,74.849L878.86,74.849L878.86,40.288Z" style="fill:rgb(17,21,23);fill-rule:nonzero;"/>
        </g>
        <g transform="matrix(0.66493,0,0,0.66493,131.287,125.403)">
            <path d="M919.23,68.518C921.568,68.669 923.816,67.589 925.16,65.668C926.493,63.768 927.16,61.055 927.16,57.528C927.16,54.002 926.493,51.312 925.16,49.458C922.444,46.186 917.59,45.735 914.317,48.451C913.951,48.755 913.614,49.092 913.31,49.458C912.01,51.305 911.36,53.995 911.36,57.528C911.36,61.099 912,63.829 913.28,65.699C914.639,67.605 916.896,68.664 919.23,68.488L919.23,68.518ZM919.23,75.929C913.67,75.929 909.37,74.338 906.33,71.159C903.29,67.978 901.767,63.435 901.76,57.528C901.724,54.93 902.14,52.345 902.99,49.889C903.726,47.738 904.92,45.772 906.49,44.128C908.051,42.539 909.938,41.308 912.02,40.518C916.706,38.851 921.824,38.851 926.51,40.518C930.783,42.104 934.098,45.555 935.51,49.889C936.341,52.349 936.746,54.932 936.71,57.528C936.75,60.15 936.334,62.759 935.48,65.238C934.734,67.395 933.537,69.369 931.97,71.028C930.422,72.635 928.536,73.878 926.45,74.668C924.143,75.534 921.694,75.962 919.23,75.929Z" style="fill:rgb(17,21,23);fill-rule:nonzero;"/>
        </g>
        <g transform="matrix(0.66493,0,0,0.66493,131.287,125.403)">
            <path d="M972.11,62.329C971.949,66.04 970.429,69.564 967.84,72.228C965.347,74.668 961.606,75.892 956.62,75.898C954.044,75.958 951.482,75.51 949.08,74.579C947.077,73.776 945.297,72.504 943.89,70.869C942.495,69.182 941.473,67.219 940.89,65.108C940.196,62.677 939.859,60.157 939.89,57.628C939.863,55.079 940.255,52.541 941.05,50.119C941.753,47.97 942.89,45.989 944.39,44.298C945.875,42.667 947.706,41.389 949.75,40.559C954.051,38.96 958.756,38.809 963.15,40.128C964.77,40.648 966.267,41.492 967.55,42.608C968.741,43.663 969.689,44.962 970.33,46.418C971.018,47.962 971.466,49.601 971.66,51.278L962.33,52.538C962.197,51.007 961.67,49.536 960.8,48.268C960.01,47.188 958.64,46.648 956.7,46.648C955.469,46.603 954.251,46.912 953.19,47.538C952.271,48.139 951.518,48.96 951,49.929C950.424,51.013 950.031,52.185 949.84,53.398C949.616,54.744 949.506,56.105 949.51,57.469C949.505,58.865 949.615,60.26 949.84,61.639C950.026,62.86 950.404,64.044 950.96,65.148C951.463,66.132 952.219,66.964 953.15,67.559C954.204,68.194 955.421,68.507 956.65,68.458C958.246,68.558 959.811,67.98 960.96,66.869C962.062,65.595 962.689,63.981 962.74,62.298L972.11,62.329Z" style="fill:rgb(17,21,23);fill-rule:nonzero;"/>
        </g>
        <g transform="matrix(0.66493,0,0,0.66493,131.287,125.403)">
            <path d="M976.811,27.588L986.07,27.588L986.07,44.659C987.303,42.924 988.94,41.517 990.84,40.559C992.61,39.688 994.558,39.237 996.53,39.239C1000.46,39.239 1003.38,40.262 1005.27,42.309C1007.16,44.355 1008.11,47.588 1008.11,52.009L1008.11,74.838L998.85,74.838L998.85,53.268C998.85,50.838 998.38,49.179 997.46,48.268C996.445,47.357 995.112,46.883 993.75,46.949C992.699,46.925 991.653,47.105 990.67,47.478C989.787,47.846 988.972,48.36 988.26,48.998C987.62,49.646 987.093,50.397 986.7,51.219C986.275,52.094 986.061,53.056 986.07,54.028L986.07,74.809L976.81,74.809L976.811,27.588Z" style="fill:rgb(17,21,23);fill-rule:nonzero;"/>
        </g>
        <g transform="matrix(0.66493,0,0,0.66493,131.287,125.403)">
            <path d="M1030.35,68.518C1032.69,68.672 1034.93,67.59 1036.27,65.668C1037.57,63.768 1038.24,61.055 1038.27,57.528C1038.3,54.002 1037.64,51.312 1036.27,49.458C1033.56,46.189 1028.71,45.736 1025.44,48.447C1025.07,48.752 1024.74,49.09 1024.43,49.458C1023.1,51.305 1022.43,53.995 1022.43,57.528C1022.43,61.099 1023.07,63.829 1024.35,65.699C1025.72,67.619 1028,68.678 1030.35,68.488L1030.35,68.518ZM1030.35,75.929C1024.79,75.929 1020.49,74.338 1017.44,71.159C1014.39,67.978 1012.87,63.435 1012.88,57.528C1012.84,54.93 1013.25,52.345 1014.1,49.889C1014.84,47.739 1016.04,45.774 1017.61,44.128C1019.17,42.537 1021.05,41.305 1023.13,40.518C1027.82,38.852 1032.94,38.852 1037.63,40.518C1041.9,42.113 1045.21,45.56 1046.63,49.889C1047.45,52.351 1047.85,54.933 1047.82,57.528C1047.86,60.149 1047.45,62.757 1046.6,65.238C1045.85,67.393 1044.65,69.367 1043.09,71.028C1041.54,72.636 1039.65,73.879 1037.56,74.668C1035.26,75.535 1032.81,75.962 1030.35,75.929Z" style="fill:rgb(17,21,23);fill-rule:nonzero;"/>
        </g>
        <g transform="matrix(0.66493,0,0,0.66493,131.287,125.403)">
            <rect x="1053" y="27.588" width="9.27" height="47.25" style="fill:rgb(17,21,23);fill-rule:nonzero;"/>
        </g>
        <g transform="matrix(0.66493,0,0,0.66493,131.287,125.403)">
            <rect x="122.45" y="91.589" width="8" height="47.249" style="fill:rgb(17,21,23);fill-rule:nonzero;"/>
        </g>
        <g transform="matrix(0.66493,0,0,0.66493,131.287,125.403)">
            <path d="M145.08,104.428L145.08,109.428C147.46,106.094 150.283,104.174 153.55,103.668C154.427,103.534 155.313,103.466 156.2,103.468C158.231,103.463 160.216,104.077 161.89,105.228C163.371,106.338 164.48,107.873 165.07,109.628C168.11,105.481 171.86,103.408 176.32,103.408C179.98,103.408 182.67,104.408 184.39,106.408C186.11,108.408 186.97,111.652 186.97,116.138L186.97,138.838L179.43,138.838L179.43,118.188C179.453,116.79 179.342,115.394 179.1,114.018C178.935,113.092 178.595,112.207 178.1,111.408C177.721,110.801 177.151,110.337 176.48,110.088C175.759,109.83 174.996,109.704 174.23,109.718C173.02,109.693 171.82,109.942 170.72,110.448C169.745,110.903 168.876,111.557 168.17,112.368C167.491,113.157 166.965,114.066 166.62,115.048C166.265,116.036 166.086,117.079 166.09,118.128L166.09,138.838L158.54,138.838L158.54,117.458C158.54,114.511 158.09,112.485 157.19,111.378C156.275,110.265 154.889,109.65 153.45,109.718C152.636,109.743 151.831,109.887 151.06,110.148C150.09,110.46 149.183,110.942 148.38,111.568C147.471,112.292 146.719,113.194 146.17,114.218C145.523,115.45 145.203,116.827 145.24,118.218L145.24,138.798L137.8,138.798L137.8,104.428L145.08,104.428Z" style="fill:rgb(17,21,23);fill-rule:nonzero;"/>
        </g>
        <g transform="matrix(0.66493,0,0,0.66493,131.287,125.403)">
            <path d="M200.61,104.428L200.61,109.428C202.99,106.094 205.813,104.174 209.08,103.668C209.957,103.534 210.843,103.466 211.73,103.468C213.761,103.463 215.746,104.077 217.42,105.228C218.896,106.342 220,107.875 220.59,109.628C223.637,105.481 227.387,103.408 231.84,103.408C235.513,103.408 238.207,104.408 239.92,106.408C241.633,108.408 242.493,111.652 242.5,116.138L242.5,138.838L235,138.838L235,118.188C235.022,116.79 234.912,115.394 234.67,114.018C234.505,113.092 234.166,112.207 233.67,111.408C233.291,110.801 232.721,110.337 232.05,110.088C231.329,109.83 230.566,109.704 229.8,109.718C228.59,109.693 227.39,109.942 226.29,110.448C225.318,110.903 224.453,111.557 223.75,112.368C223.064,113.154 222.535,114.064 222.19,115.048C221.839,116.037 221.66,117.079 221.66,118.128L221.66,138.838L214.12,138.838L214.12,117.458C214.12,114.508 213.66,112.458 212.76,111.378C211.847,110.264 210.459,109.648 209.02,109.718C208.21,109.743 207.408,109.887 206.64,110.148C205.669,110.458 204.762,110.94 203.96,111.568C203.051,112.294 202.296,113.196 201.74,114.218C201.096,115.451 200.779,116.828 200.82,118.218L200.82,138.798L193.34,138.798L193.34,104.428L200.61,104.428Z" style="fill:rgb(17,21,23);fill-rule:nonzero;"/>
        </g>
        <g transform="matrix(0.66493,0,0,0.66493,131.287,125.403)">
            <path d="M272.54,118.258C272.667,115.864 271.96,113.499 270.54,111.568C269.207,109.941 267.09,109.128 264.19,109.128C261.806,108.963 259.472,109.873 257.829,111.608C256.288,113.49 255.406,115.827 255.32,118.258L272.54,118.258ZM279.43,128.648C278.997,131.888 277.366,134.849 274.86,136.948C272.433,138.948 268.947,139.931 264.4,139.898C258.933,139.898 254.777,138.322 251.93,135.168C249.083,132.015 247.66,127.568 247.66,121.828C247.615,119.154 248.031,116.492 248.89,113.958C249.613,111.806 250.786,109.832 252.33,108.168C253.807,106.597 255.613,105.374 257.62,104.588C259.782,103.755 262.083,103.342 264.4,103.368C266.755,103.315 269.097,103.73 271.29,104.588C273.144,105.347 274.796,106.525 276.12,108.028C277.435,109.571 278.403,111.378 278.96,113.328C279.604,115.553 279.918,117.862 279.89,120.178L279.89,123.488L255.21,123.488C255.163,126.215 255.998,128.885 257.59,131.098C259.09,133.038 261.359,134.008 264.4,134.008C266.291,134.148 268.175,133.66 269.76,132.618C271.007,131.611 271.854,130.193 272.15,128.618L279.43,128.648Z" style="fill:rgb(17,21,23);fill-rule:nonzero;"/>
        </g>
        <g transform="matrix(0.66493,0,0,0.66493,131.287,125.403)">
            <path d="M292.33,104.428L292.33,109.518C293.417,107.811 294.89,106.382 296.63,105.348C298.261,104.404 300.115,103.914 302,103.928C302.753,103.928 303.383,103.948 303.89,103.988C304.4,104.038 304.89,104.098 305.38,104.188L304.52,111.068C304,110.931 303.467,110.844 302.93,110.808C302.36,110.808 301.76,110.738 301.14,110.738C299.872,110.714 298.612,110.953 297.44,111.438C296.436,111.863 295.525,112.481 294.76,113.258C294.043,113.99 293.479,114.857 293.1,115.808C292.735,116.724 292.545,117.702 292.54,118.688L292.54,138.868L285.06,138.868L285.06,104.428L292.33,104.428Z" style="fill:rgb(17,21,23);fill-rule:nonzero;"/>
        </g>
        <g transform="matrix(0.66493,0,0,0.66493,131.287,125.403)">
            <path d="M313.57,128.318C313.654,129.316 313.973,130.278 314.5,131.128C314.966,131.841 315.589,132.44 316.32,132.878C317.104,133.341 317.97,133.647 318.87,133.778C319.899,133.934 320.939,134.011 321.98,134.008C324.49,134.008 326.3,133.638 327.41,132.878C328.503,132.141 329.13,130.885 329.06,129.568C329.097,128.508 328.741,127.471 328.06,126.658C327.38,125.868 325.98,125.298 323.86,124.938C321.13,124.458 318.72,123.988 316.65,123.548C314.827,123.202 313.064,122.588 311.42,121.728C310.102,121.042 309.001,120.003 308.24,118.728C307.464,117.205 307.099,115.505 307.18,113.798C307.165,112.289 307.529,110.799 308.24,109.468C308.975,108.151 310.001,107.018 311.24,106.158C312.606,105.206 314.129,104.501 315.74,104.078C317.604,103.574 319.529,103.328 321.46,103.348C323.693,103.293 325.922,103.56 328.08,104.138C329.648,104.565 331.112,105.31 332.38,106.328C333.436,107.194 334.294,108.274 334.9,109.498C335.475,110.704 335.917,111.967 336.22,113.268L329.47,114.198C329.084,112.7 328.242,111.358 327.06,110.358C325.97,109.528 324.18,109.108 321.66,109.108C320.458,109.079 319.257,109.209 318.09,109.498C317.298,109.703 316.548,110.04 315.87,110.498C315.375,110.819 314.985,111.278 314.75,111.818C314.555,112.277 314.453,112.77 314.45,113.268C314.433,113.898 314.521,114.527 314.71,115.128C314.906,115.623 315.257,116.04 315.71,116.318C316.295,116.677 316.933,116.944 317.6,117.108C318.39,117.328 319.39,117.548 320.6,117.778L324.9,118.498C326.855,118.806 328.772,119.319 330.62,120.028C331.976,120.532 333.215,121.308 334.26,122.308C335.146,123.178 335.796,124.258 336.15,125.448C336.518,126.748 336.696,128.096 336.68,129.448C336.768,132.402 335.437,135.219 333.1,137.028C330.626,138.961 326.963,139.928 322.11,139.928C320.189,139.932 318.273,139.745 316.39,139.368C314.65,139.026 312.982,138.386 311.46,137.478C310.008,136.606 308.792,135.39 307.92,133.938C306.944,132.233 306.408,130.312 306.36,128.348L313.57,128.318Z" style="fill:rgb(17,21,23);fill-rule:nonzero;"/>
        </g>
        <g transform="matrix(0.66493,0,0,0.66493,131.287,125.403)">
            <path d="M349.18,104.428L349.18,138.838L341.63,138.838L341.63,104.428L349.18,104.428ZM349.31,91.589L349.31,99.068L341.5,99.068L341.5,91.589L349.31,91.589Z" style="fill:rgb(17,21,23);fill-rule:nonzero;"/>
        </g>
        <g transform="matrix(0.66493,0,0,0.66493,131.287,125.403)">
            <path d="M360.69,104.428L369.62,130.368L378.69,104.428L387,104.428L373.3,138.838L365.56,138.838L352,104.428L360.69,104.428Z" style="fill:rgb(17,21,23);fill-rule:nonzero;"/>
        </g>
        <g transform="matrix(0.66493,0,0,0.66493,131.287,125.403)">
            <path d="M411.84,118.258C411.967,115.864 411.26,113.499 409.84,111.568C408.507,109.941 406.39,109.128 403.49,109.128C401.106,108.963 398.773,109.873 397.13,111.608C395.588,113.49 394.706,115.827 394.62,118.258L411.84,118.258ZM418.73,128.648C418.296,131.888 416.667,134.849 414.16,136.948C411.727,138.948 408.24,139.931 403.7,139.898C398.233,139.898 394.077,138.322 391.23,135.168C388.383,132.015 386.973,127.568 387,121.828C386.955,119.154 387.371,116.492 388.23,113.958C388.953,111.806 390.125,109.832 391.67,108.168C393.146,106.597 394.953,105.374 396.96,104.588C399.123,103.755 401.423,103.342 403.74,103.368C406.095,103.315 408.437,103.73 410.63,104.588C412.483,105.347 414.137,106.525 415.46,108.028C416.775,109.571 417.743,111.378 418.3,113.328C418.944,115.553 419.258,117.862 419.23,120.178L419.23,123.488L394.5,123.488C394.461,126.215 395.299,128.883 396.89,131.098C398.39,133.038 400.66,134.008 403.7,134.008C405.591,134.148 407.476,133.66 409.06,132.618C410.307,131.611 411.154,130.193 411.45,128.618L418.73,128.648Z" style="fill:rgb(17,21,23);fill-rule:nonzero;"/>
        </g>
        <g transform="matrix(0.66493,0,0,0.66493,131.287,125.403)">
            <path d="M438.18,91.589L469.62,91.589L469.62,98.469L446.19,98.469L446.19,111.038L468.29,111.038L468.29,117.988L446.19,117.988L446.19,131.988L470.88,131.988L469.95,138.868L438.18,138.868L438.18,91.589Z" style="fill:rgb(17,21,23);fill-rule:nonzero;"/>
        </g>
        <g transform="matrix(0.66493,0,0,0.66493,131.287,125.403)">
            <path d="M482.26,104.428L482.26,109.428C483.6,107.491 485.383,105.9 487.46,104.788C489.375,103.821 491.494,103.324 493.64,103.338C501.32,103.338 505.16,107.572 505.16,116.038L505.16,138.808L497.62,138.808L497.62,117.268C497.62,114.488 497.11,112.528 496.09,111.408C494.911,110.211 493.266,109.593 491.59,109.718C490.332,109.704 489.084,109.942 487.92,110.418C486.845,110.847 485.866,111.487 485.04,112.298C484.25,113.092 483.613,114.024 483.16,115.048C482.694,116.075 482.456,117.19 482.46,118.318L482.46,138.838L475,138.838L475,104.428L482.26,104.428Z" style="fill:rgb(17,21,23);fill-rule:nonzero;"/>
        </g>
        <g transform="matrix(0.66493,0,0,0.66493,131.287,125.403)">
            <path d="M515.68,104.428L524.61,130.368L533.68,104.428L542,104.428L528.3,138.838L520.56,138.838L506.94,104.428L515.68,104.428Z" style="fill:rgb(17,21,23);fill-rule:nonzero;"/>
        </g>
        <g transform="matrix(0.66493,0,0,0.66493,131.287,125.403)">
            <path d="M552.47,104.428L552.47,138.838L544.93,138.838L544.93,104.428L552.47,104.428ZM552.61,91.589L552.61,99.068L544.8,99.068L544.8,91.589L552.61,91.589Z" style="fill:rgb(17,21,23);fill-rule:nonzero;"/>
        </g>
        <g transform="matrix(0.66493,0,0,0.66493,131.287,125.403)">
            <path d="M566.37,104.428L566.37,109.518C567.457,107.811 568.93,106.382 570.67,105.348C572.289,104.411 574.129,103.92 576,103.928C576.753,103.928 577.384,103.948 577.89,103.988C578.4,104.038 578.89,104.098 579.38,104.188L578.52,111.068C577.999,110.931 577.467,110.844 576.93,110.808C576.36,110.808 575.76,110.738 575.14,110.738C573.872,110.714 572.612,110.953 571.44,111.438C570.435,111.86 569.523,112.479 568.76,113.258C568.043,113.99 567.479,114.857 567.1,115.808C566.735,116.724 566.545,117.702 566.54,118.688L566.54,138.868L559.061,138.868L559.061,104.428L566.37,104.428Z" style="fill:rgb(17,21,23);fill-rule:nonzero;"/>
        </g>
        <g transform="matrix(0.66493,0,0,0.66493,131.287,125.403)">
            <path d="M597.28,133.838C600.46,133.838 602.78,132.748 604.28,130.558C605.78,128.368 606.5,125.388 606.5,121.558C606.5,117.728 605.76,114.848 604.28,112.688C602.8,110.528 600.48,109.448 597.28,109.448C594.08,109.448 591.77,110.538 590.28,112.718C588.79,114.898 588.061,117.848 588.061,121.558C588.061,125.268 588.78,128.288 590.21,130.488C591.641,132.688 594,133.808 597.28,133.808L597.28,133.838ZM597.21,139.928C591.83,139.928 587.66,138.338 584.7,135.158C581.74,131.978 580.264,127.478 580.27,121.658C580.242,119.118 580.634,116.59 581.43,114.178C582.128,112.048 583.267,110.089 584.77,108.428C586.262,106.812 588.092,105.545 590.13,104.718C592.422,103.805 594.873,103.357 597.34,103.398C599.833,103.351 602.31,103.81 604.62,104.748C606.647,105.593 608.466,106.87 609.95,108.488C611.427,110.146 612.535,112.099 613.2,114.218C613.944,116.582 614.313,119.049 614.29,121.528C614.341,124.218 613.915,126.897 613.03,129.439C612.267,131.584 611.061,133.547 609.49,135.198C607.97,136.758 606.127,137.966 604.09,138.738C601.889,139.553 599.557,139.957 597.21,139.928Z" style="fill:rgb(17,21,23);fill-rule:nonzero;"/>
        </g>
        <g transform="matrix(0.66493,0,0,0.66493,131.287,125.403)">
            <path d="M627.12,104.428L627.12,109.428C628.46,107.491 630.242,105.9 632.32,104.788C634.238,103.82 636.36,103.323 638.51,103.338C646.177,103.338 650.014,107.572 650.02,116.038L650.02,138.808L642.48,138.808L642.48,117.268C642.48,114.488 641.97,112.528 640.96,111.408C639.778,110.214 638.135,109.597 636.46,109.718C635.199,109.704 633.947,109.942 632.78,110.418C631.706,110.85 630.728,111.489 629.9,112.298C629.11,113.092 628.473,114.024 628.02,115.048C627.559,116.077 627.32,117.191 627.32,118.318L627.32,138.838L619.85,138.838L619.85,104.428L627.12,104.428Z" style="fill:rgb(17,21,23);fill-rule:nonzero;"/>
        </g>
        <g transform="matrix(0.66493,0,0,0.66493,131.287,125.403)">
            <path d="M663.66,104.428L663.66,109.428C666.04,106.094 668.863,104.174 672.13,103.668C673.004,103.534 673.886,103.466 674.77,103.468C676.805,103.461 678.793,104.075 680.47,105.228C681.945,106.342 683.051,107.875 683.64,109.628C686.693,105.481 690.443,103.408 694.89,103.408C698.55,103.408 701.25,104.408 702.97,106.408C704.69,108.408 705.55,111.688 705.55,116.138L705.55,138.838L698,138.838L698,118.188C698.022,116.79 697.912,115.394 697.67,114.018C697.505,113.092 697.165,112.207 696.67,111.408C696.291,110.801 695.721,110.337 695.05,110.088C694.328,109.83 693.566,109.704 692.8,109.718C691.59,109.693 690.39,109.942 689.29,110.448C688.318,110.903 687.453,111.557 686.75,112.368C686.064,113.154 685.535,114.064 685.19,115.048C684.839,116.037 684.659,117.079 684.66,118.128L684.66,138.838L677.12,138.838L677.12,117.458C677.12,114.508 676.66,112.458 675.76,111.378C674.847,110.264 673.459,109.648 672.02,109.718C671.21,109.743 670.407,109.887 669.64,110.148C668.67,110.458 667.762,110.94 666.96,111.568C666.051,112.294 665.296,113.196 664.74,114.218C664.097,115.451 663.779,116.828 663.82,118.218L663.82,138.798L656.34,138.798L656.34,104.428L663.66,104.428Z" style="fill:rgb(17,21,23);fill-rule:nonzero;"/>
        </g>
        <g transform="matrix(0.66493,0,0,0.66493,131.287,125.403)">
            <path d="M735.59,118.258C735.717,115.864 735.01,113.499 733.59,111.568C732.26,109.938 730.15,109.128 727.23,109.128C724.85,108.966 722.521,109.875 720.88,111.608C719.338,113.49 718.456,115.827 718.37,118.258L735.59,118.258ZM742.48,128.648C742.047,131.888 740.416,134.849 737.91,136.948C735.483,138.948 731.996,139.931 727.45,139.898C721.977,139.898 717.82,138.322 714.98,135.168C712.14,132.015 710.717,127.568 710.71,121.828C710.667,119.155 711.08,116.493 711.93,113.958C712.66,111.807 713.836,109.834 715.38,108.168C716.856,106.597 718.663,105.374 720.67,104.588C722.832,103.755 725.133,103.342 727.45,103.368C729.805,103.317 732.146,103.731 734.34,104.588C736.193,105.347 737.847,106.525 739.17,108.028C740.481,109.574 741.449,111.38 742.01,113.328C742.654,115.553 742.968,117.862 742.94,120.178L742.94,123.488L718.25,123.488C718.211,126.215 719.049,128.883 720.64,131.098C722.14,133.038 724.41,134.008 727.45,134.008C729.341,134.148 731.226,133.66 732.81,132.618C734.054,131.609 734.9,130.193 735.2,128.618L742.48,128.648Z" style="fill:rgb(17,21,23);fill-rule:nonzero;"/>
        </g>
        <g transform="matrix(0.66493,0,0,0.66493,131.287,125.403)">
            <path d="M755.65,104.428L755.65,109.428C756.984,107.489 758.764,105.898 760.84,104.788C762.759,103.82 764.881,103.323 767.03,103.338C774.71,103.338 778.547,107.572 778.54,116.038L778.54,138.808L771,138.808L771,117.268C771,114.488 770.49,112.528 769.48,111.408C768.299,110.214 766.654,109.597 764.98,109.718C763.719,109.704 762.468,109.942 761.3,110.418C760.226,110.85 759.247,111.489 758.42,112.298C757.63,113.092 756.993,114.024 756.54,115.048C756.079,116.077 755.84,117.191 755.84,118.318L755.84,138.838L748.37,138.838L748.37,104.428L755.65,104.428Z" style="fill:rgb(17,21,23);fill-rule:nonzero;"/>
        </g>
        <g transform="matrix(0.66493,0,0,0.66493,131.287,125.403)">
            <path d="M781.52,110.378L781.52,104.428L787,104.428L787,95.158L794.48,95.158L794.48,104.428L803,104.428L803,110.378L794.47,110.378L794.47,128.378C794.346,129.749 794.734,131.118 795.56,132.218C796.406,133.062 797.578,133.496 798.77,133.408C799.488,133.412 800.207,133.368 800.92,133.278C801.6,133.188 802.27,133.034 802.92,132.818L804.04,138.438C801.819,139.164 799.496,139.521 797.16,139.498C793.36,139.498 790.72,138.498 789.22,136.558C787.72,134.618 786.97,131.648 786.97,127.718L786.97,110.378L781.52,110.378Z" style="fill:rgb(17,21,23);fill-rule:nonzero;"/>
        </g>
        <g transform="matrix(0.66493,0,0,0.66493,131.287,125.403)">
            <path d="M812.16,128.318C812.239,129.316 812.559,130.28 813.09,131.128C813.557,131.841 814.179,132.44 814.91,132.878C815.693,133.341 816.56,133.647 817.46,133.778C818.489,133.934 819.529,134.011 820.57,134.008C823.08,134.008 824.89,133.638 825.99,132.878C827.091,132.147 827.722,130.887 827.65,129.568C827.687,128.508 827.331,127.471 826.65,126.658C825.97,125.868 824.57,125.298 822.45,124.938C819.71,124.458 817.31,123.988 815.24,123.548C813.413,123.203 811.647,122.589 810,121.728C808.682,121.042 807.581,120.003 806.82,118.728C806.044,117.205 805.679,115.505 805.76,113.798C805.744,112.289 806.109,110.799 806.82,109.468C807.555,108.151 808.581,107.018 809.82,106.158C811.185,105.203 812.708,104.498 814.32,104.078C816.185,103.574 818.109,103.328 820.04,103.348C822.273,103.294 824.502,103.56 826.66,104.138C828.228,104.567 829.691,105.312 830.96,106.328C832.016,107.194 832.875,108.274 833.48,109.498C834.055,110.704 834.497,111.967 834.8,113.268L828.05,114.198C827.66,112.699 826.814,111.357 825.63,110.358C824.55,109.532 822.753,109.115 820.24,109.108C819.038,109.078 817.837,109.209 816.67,109.498C815.879,109.703 815.128,110.04 814.45,110.498C813.955,110.821 813.563,111.279 813.32,111.818C813.134,112.279 813.036,112.771 813.03,113.268C813.008,113.898 813.096,114.528 813.29,115.128C813.486,115.623 813.837,116.04 814.29,116.318C814.874,116.679 815.513,116.946 816.18,117.108C816.97,117.328 817.96,117.548 819.18,117.778L823.49,118.498C825.445,118.806 827.362,119.319 829.21,120.028C830.566,120.532 831.805,121.308 832.85,122.308C833.735,123.178 834.386,124.258 834.74,125.448C835.108,126.748 835.286,128.096 835.271,129.448C835.357,132.402 834.027,135.219 831.69,137.028C829.23,138.961 825.566,139.928 820.7,139.928C818.776,139.933 816.856,139.746 814.97,139.368C813.231,139.023 811.564,138.383 810.04,137.478C808.591,136.597 807.376,135.379 806.5,133.928C805.534,132.219 805.002,130.301 804.95,128.338L812.16,128.318Z" style="fill:rgb(17,21,23);fill-rule:nonzero;"/>
        </g>
        <g transform="matrix(0.66493,0,0,0.66493,131.287,125.403)">
            <path d="M861.2,91.589L861.2,131.928L884.62,131.928L883.62,138.878L853.19,138.878L853.19,91.589L861.2,91.589Z" style="fill:rgb(17,21,23);fill-rule:nonzero;"/>
        </g>
        <g transform="matrix(0.66493,0,0,0.66493,131.287,125.403)">
            <path d="M904.9,122.758C903.058,122.83 901.227,123.074 899.43,123.488C898.288,123.734 897.203,124.192 896.23,124.838C895.542,125.303 895.021,125.976 894.74,126.758C894.487,127.515 894.362,128.31 894.37,129.109C894.3,130.43 894.82,131.717 895.79,132.618C896.984,133.558 898.483,134.025 900,133.928C903.31,133.928 905.75,133.088 907.34,131.408C909.002,129.541 909.861,127.094 909.73,124.598L909.73,122.598L904.9,122.758ZM909.9,134.338C908.592,135.905 906.996,137.208 905.2,138.178C903.114,139.246 900.792,139.768 898.45,139.698C896.904,139.709 895.365,139.498 893.88,139.068C892.547,138.685 891.3,138.046 890.21,137.188C889.154,136.324 888.315,135.224 887.76,133.978C887.139,132.526 886.835,130.957 886.87,129.378C886.772,127.329 887.33,125.3 888.46,123.588C889.526,122.103 890.945,120.907 892.59,120.108C894.399,119.236 896.332,118.646 898.32,118.358C900.423,118.029 902.543,117.819 904.67,117.728L909.77,117.458L909.77,116.008C909.77,113.408 909.14,111.608 907.88,110.608C906.467,109.578 904.747,109.056 903,109.128C901.187,108.994 899.375,109.409 897.8,110.318C896.655,111.144 895.866,112.373 895.59,113.758L888.7,113.028C889.093,110.034 890.759,107.355 893.27,105.678C895.696,104.138 899.03,103.368 903.27,103.368C905.56,103.303 907.841,103.663 910,104.428C913.277,105.582 915.728,108.346 916.48,111.738C916.915,113.569 917.127,115.446 917.11,117.328L917.11,138.838L909.9,138.838L909.9,134.338Z" style="fill:rgb(17,21,23);fill-rule:nonzero;"/>
        </g>
        <g transform="matrix(0.66493,0,0,0.66493,131.287,125.403)">
            <path d="M930.88,122.758C930.865,124.6 931.143,126.432 931.7,128.188C932.118,129.443 932.8,130.59 933.7,131.558C934.47,132.368 935.438,132.961 936.51,133.278C937.586,133.588 938.7,133.744 939.82,133.738C940.999,133.749 942.169,133.525 943.26,133.078C944.344,132.623 945.299,131.91 946.04,130.999C946.913,129.896 947.543,128.621 947.89,127.258C948.377,125.402 948.603,123.487 948.56,121.568C948.601,119.701 948.365,117.836 947.86,116.038C947.492,114.701 946.874,113.446 946.04,112.338C945.34,111.424 944.417,110.705 943.36,110.248C942.346,109.813 941.254,109.588 940.15,109.588C938.71,109.549 937.277,109.819 935.95,110.378C934.818,110.878 933.829,111.651 933.07,112.628C932.289,113.664 931.728,114.848 931.42,116.108C931.049,117.565 930.871,119.065 930.89,120.568L930.89,122.758L930.88,122.758ZM930.94,91.589L930.94,108.928C932.195,107.219 933.81,105.806 935.67,104.788C937.607,103.805 939.758,103.318 941.93,103.368C944.143,103.314 946.338,103.765 948.35,104.688C950.128,105.543 951.672,106.816 952.85,108.398C954.099,110.117 955.008,112.058 955.53,114.118C956.144,116.53 956.443,119.01 956.42,121.498C956.455,124.087 956.098,126.666 955.36,129.148C954.752,131.258 953.732,133.225 952.36,134.938C951.064,136.502 949.435,137.756 947.59,138.608C945.637,139.491 943.513,139.931 941.37,139.898C939.391,139.915 937.43,139.51 935.62,138.708C933.706,137.787 932.046,136.414 930.78,134.708L930.78,138.808L923.5,138.808L923.5,91.589L930.94,91.589Z" style="fill:rgb(17,21,23);fill-rule:nonzero;"/>
        </g>
    </g>
</svg>
